<svg width="1200" height="1200" viewBox="0 0 1200 1200" fill="none" xmlns="http://www.w3.org/2000/svg">
<rect width="1200" height="1200" fill="#0263C7"/>
<path d="M198.57 284.227C211.526 284.227 222.203 285.789 230.602 288.914C239.065 292.039 245.348 296.759 249.449 303.074C253.551 309.389 255.602 317.365 255.602 327C255.602 333.51 254.365 339.207 251.891 344.09C249.417 348.973 246.161 353.107 242.125 356.492C238.089 359.878 233.727 362.645 229.039 364.793L271.031 427H237.438L203.355 372.215H187.242V427H156.969V284.227H198.57ZM196.422 309.031H187.242V347.605H197.008C207.034 347.605 214.195 345.945 218.492 342.625C222.854 339.24 225.035 334.292 225.035 327.781C225.035 321.01 222.691 316.193 218.004 313.328C213.382 310.464 206.188 309.031 196.422 309.031Z" fill="white"/>
<path d="M337.383 315.574C352.031 315.574 363.262 318.764 371.074 325.145C378.887 331.525 382.793 341.225 382.793 354.246V427H361.992L356.23 412.156H355.449C352.324 416.062 349.134 419.253 345.879 421.727C342.624 424.201 338.88 426.023 334.648 427.195C330.417 428.367 325.273 428.953 319.219 428.953C312.773 428.953 306.979 427.716 301.836 425.242C296.758 422.768 292.754 418.992 289.824 413.914C286.895 408.771 285.43 402.26 285.43 394.383C285.43 382.794 289.499 374.266 297.637 368.797C305.775 363.263 317.982 360.203 334.258 359.617L353.203 359.031V354.246C353.203 348.517 351.706 344.318 348.711 341.648C345.716 338.979 341.549 337.645 336.211 337.645C330.938 337.645 325.762 338.393 320.684 339.891C315.605 341.388 310.527 343.276 305.449 345.555L295.586 325.438C301.38 322.378 307.858 319.969 315.02 318.211C322.246 316.453 329.701 315.574 337.383 315.574ZM353.203 376.414L341.68 376.805C332.044 377.065 325.339 378.79 321.562 381.98C317.852 385.171 315.996 389.37 315.996 394.578C315.996 399.135 317.331 402.391 320 404.344C322.669 406.232 326.152 407.176 330.449 407.176C336.829 407.176 342.201 405.288 346.562 401.512C350.99 397.736 353.203 392.365 353.203 385.398V376.414Z" fill="white"/>
<path d="M410.766 475.047C407.38 475.047 403.865 474.786 400.219 474.266C396.573 473.81 393.546 473.257 391.137 472.605V449.168C393.546 449.819 395.824 450.275 397.973 450.535C400.056 450.861 402.432 451.023 405.102 451.023C409.138 451.023 412.556 449.884 415.355 447.605C418.155 445.392 419.555 440.997 419.555 434.422V317.82H449.34V438.816C449.34 445.457 448.07 451.512 445.531 456.98C442.992 462.514 438.891 466.909 433.227 470.164C427.562 473.419 420.076 475.047 410.766 475.047ZM418.285 289.598C418.285 283.999 419.848 280.19 422.973 278.172C426.163 276.089 430.004 275.047 434.496 275.047C438.923 275.047 442.732 276.089 445.922 278.172C449.112 280.19 450.707 283.999 450.707 289.598C450.707 295.132 449.112 298.973 445.922 301.121C442.732 303.204 438.923 304.246 434.496 304.246C430.004 304.246 426.163 303.204 422.973 301.121C419.848 298.973 418.285 295.132 418.285 289.598Z" fill="white"/>
<path d="M531.414 315.574C546.062 315.574 557.293 318.764 565.105 325.145C572.918 331.525 576.824 341.225 576.824 354.246V427H556.023L550.262 412.156H549.48C546.355 416.062 543.165 419.253 539.91 421.727C536.655 424.201 532.911 426.023 528.68 427.195C524.448 428.367 519.305 428.953 513.25 428.953C506.805 428.953 501.01 427.716 495.867 425.242C490.789 422.768 486.785 418.992 483.855 413.914C480.926 408.771 479.461 402.26 479.461 394.383C479.461 382.794 483.53 374.266 491.668 368.797C499.806 363.263 512.013 360.203 528.289 359.617L547.234 359.031V354.246C547.234 348.517 545.737 344.318 542.742 341.648C539.747 338.979 535.581 337.645 530.242 337.645C524.969 337.645 519.793 338.393 514.715 339.891C509.637 341.388 504.559 343.276 499.48 345.555L489.617 325.438C495.411 322.378 501.889 319.969 509.051 318.211C516.277 316.453 523.732 315.574 531.414 315.574ZM547.234 376.414L535.711 376.805C526.076 377.065 519.37 378.79 515.594 381.98C511.883 385.171 510.027 389.37 510.027 394.578C510.027 399.135 511.362 402.391 514.031 404.344C516.701 406.232 520.184 407.176 524.48 407.176C530.861 407.176 536.232 405.288 540.594 401.512C545.021 397.736 547.234 392.365 547.234 385.398V376.414Z" fill="white"/>
<path d="M675.598 315.77C687.251 315.77 696.626 318.96 703.723 325.34C710.819 331.655 714.367 341.811 714.367 355.809V427H684.582V363.23C684.582 355.418 683.15 349.526 680.285 345.555C677.486 341.583 673.059 339.598 667.004 339.598C657.889 339.598 651.672 342.69 648.352 348.875C645.031 355.06 643.371 363.979 643.371 375.633V427H613.586V317.82H636.34L640.344 331.785H642.004C644.348 328.009 647.245 324.949 650.695 322.605C654.211 320.262 658.085 318.536 662.316 317.43C666.613 316.323 671.04 315.77 675.598 315.77Z" fill="white"/>
<path d="M156.969 533.227H201.402C220.413 533.227 234.801 535.896 244.566 541.234C254.332 546.573 259.215 555.948 259.215 569.359C259.215 574.763 258.336 579.646 256.578 584.008C254.885 588.37 252.411 591.951 249.156 594.75C245.901 597.549 241.93 599.372 237.242 600.219V601.195C241.995 602.172 246.292 603.865 250.133 606.273C253.974 608.617 257.034 612.068 259.312 616.625C261.656 621.117 262.828 627.107 262.828 634.594C262.828 643.253 260.712 650.674 256.48 656.859C252.249 663.044 246.194 667.797 238.316 671.117C230.504 674.372 221.194 676 210.387 676H156.969V533.227ZM187.242 589.77H204.82C213.609 589.77 219.697 588.402 223.082 585.668C226.467 582.868 228.16 578.767 228.16 573.363C228.16 567.895 226.142 563.988 222.105 561.645C218.134 559.236 211.819 558.031 203.16 558.031H187.242V589.77ZM187.242 613.793V651H206.969C216.083 651 222.431 649.242 226.012 645.727C229.592 642.211 231.383 637.491 231.383 631.566C231.383 628.051 230.602 624.958 229.039 622.289C227.477 619.62 224.84 617.536 221.129 616.039C217.483 614.542 212.438 613.793 205.992 613.793H187.242Z" fill="white"/>
<path d="M395.195 566.82V676H372.344L368.34 662.035H366.777C364.434 665.746 361.504 668.773 357.988 671.117C354.473 673.461 350.599 675.186 346.367 676.293C342.135 677.4 337.741 677.953 333.184 677.953C325.371 677.953 318.568 676.586 312.773 673.852C306.979 671.052 302.454 666.723 299.199 660.863C296.009 655.004 294.414 647.387 294.414 638.012V566.82H324.199V630.59C324.199 638.402 325.599 644.294 328.398 648.266C331.198 652.237 335.658 654.223 341.777 654.223C347.832 654.223 352.585 652.855 356.035 650.121C359.486 647.322 361.895 643.253 363.262 637.914C364.694 632.51 365.41 625.935 365.41 618.188V566.82H395.195Z" fill="white"/>
<path d="M508.617 643.578C508.617 651 506.859 657.283 503.344 662.426C499.893 667.504 494.717 671.378 487.816 674.047C480.915 676.651 472.322 677.953 462.035 677.953C454.418 677.953 447.875 677.465 442.406 676.488C437.003 675.512 431.534 673.884 426 671.605V646.996C431.924 649.665 438.272 651.879 445.043 653.637C451.879 655.329 457.868 656.176 463.012 656.176C468.806 656.176 472.94 655.329 475.414 653.637C477.953 651.879 479.223 649.6 479.223 646.801C479.223 644.978 478.702 643.35 477.66 641.918C476.684 640.421 474.535 638.76 471.215 636.938C467.895 635.049 462.686 632.608 455.59 629.613C448.754 626.749 443.122 623.852 438.695 620.922C434.333 617.992 431.078 614.542 428.93 610.57C426.846 606.534 425.805 601.423 425.805 595.238C425.805 585.147 429.711 577.562 437.523 572.484C445.401 567.341 455.915 564.77 469.066 564.77C475.837 564.77 482.283 565.453 488.402 566.82C494.587 568.188 500.935 570.368 507.445 573.363L498.461 594.848C493.057 592.504 487.947 590.583 483.129 589.086C478.376 587.589 473.526 586.84 468.578 586.84C464.216 586.84 460.928 587.426 458.715 588.598C456.501 589.77 455.395 591.56 455.395 593.969C455.395 595.727 455.948 597.289 457.055 598.656C458.227 600.023 460.44 601.553 463.695 603.246C467.016 604.874 471.866 606.99 478.246 609.594C484.431 612.133 489.802 614.802 494.359 617.602C498.917 620.336 502.432 623.754 504.906 627.855C507.38 631.892 508.617 637.133 508.617 643.578Z" fill="white"/>
<path d="M567.645 566.82V676H537.859V566.82H567.645ZM552.801 524.047C557.228 524.047 561.036 525.089 564.227 527.172C567.417 529.19 569.012 532.999 569.012 538.598C569.012 544.132 567.417 547.973 564.227 550.121C561.036 552.204 557.228 553.246 552.801 553.246C548.309 553.246 544.467 552.204 541.277 550.121C538.152 547.973 536.59 544.132 536.59 538.598C536.59 532.999 538.152 529.19 541.277 527.172C544.467 525.089 548.309 524.047 552.801 524.047Z" fill="white"/>
<path d="M667.004 564.77C678.658 564.77 688.033 567.96 695.129 574.34C702.225 580.655 705.773 590.811 705.773 604.809V676H675.988V612.23C675.988 604.418 674.556 598.526 671.691 594.555C668.892 590.583 664.465 588.598 658.41 588.598C649.296 588.598 643.078 591.69 639.758 597.875C636.438 604.06 634.777 612.979 634.777 624.633V676H604.992V566.82H627.746L631.75 580.785H633.41C635.754 577.009 638.651 573.949 642.102 571.605C645.617 569.262 649.491 567.536 653.723 566.43C658.02 565.323 662.447 564.77 667.004 564.77Z" fill="white"/>
<path d="M787.457 564.77C797.548 564.77 806.24 566.723 813.531 570.629C820.823 574.47 826.454 580.069 830.426 587.426C834.397 594.783 836.383 603.767 836.383 614.379V628.832H765.973C766.298 637.23 768.805 643.839 773.492 648.656C778.245 653.409 784.82 655.785 793.219 655.785C800.185 655.785 806.565 655.069 812.359 653.637C818.154 652.204 824.111 650.056 830.23 647.191V670.238C824.827 672.908 819.163 674.861 813.238 676.098C807.379 677.335 800.25 677.953 791.852 677.953C780.914 677.953 771.214 675.935 762.75 671.898C754.352 667.862 747.743 661.71 742.926 653.441C738.173 645.173 735.797 634.757 735.797 622.191C735.797 609.431 737.945 598.819 742.242 590.355C746.604 581.827 752.659 575.447 760.406 571.215C768.154 566.918 777.171 564.77 787.457 564.77ZM787.652 585.961C781.858 585.961 777.04 587.816 773.199 591.527C769.423 595.238 767.242 601.065 766.656 609.008H808.453C808.388 604.581 807.574 600.642 806.012 597.191C804.514 593.741 802.236 591.007 799.176 588.988C796.181 586.97 792.34 585.961 787.652 585.961Z" fill="white"/>
<path d="M942.773 643.578C942.773 651 941.016 657.283 937.5 662.426C934.049 667.504 928.874 671.378 921.973 674.047C915.072 676.651 906.478 677.953 896.191 677.953C888.574 677.953 882.031 677.465 876.562 676.488C871.159 675.512 865.69 673.884 860.156 671.605V646.996C866.081 649.665 872.428 651.879 879.199 653.637C886.035 655.329 892.025 656.176 897.168 656.176C902.962 656.176 907.096 655.329 909.57 653.637C912.109 651.879 913.379 649.6 913.379 646.801C913.379 644.978 912.858 643.35 911.816 641.918C910.84 640.421 908.691 638.76 905.371 636.938C902.051 635.049 896.842 632.608 889.746 629.613C882.91 626.749 877.279 623.852 872.852 620.922C868.49 617.992 865.234 614.542 863.086 610.57C861.003 606.534 859.961 601.423 859.961 595.238C859.961 585.147 863.867 577.562 871.68 572.484C879.557 567.341 890.072 564.77 903.223 564.77C909.993 564.77 916.439 565.453 922.559 566.82C928.743 568.188 935.091 570.368 941.602 573.363L932.617 594.848C927.214 592.504 922.103 590.583 917.285 589.086C912.533 587.589 907.682 586.84 902.734 586.84C898.372 586.84 895.085 587.426 892.871 588.598C890.658 589.77 889.551 591.56 889.551 593.969C889.551 595.727 890.104 597.289 891.211 598.656C892.383 600.023 894.596 601.553 897.852 603.246C901.172 604.874 906.022 606.99 912.402 609.594C918.587 612.133 923.958 614.802 928.516 617.602C933.073 620.336 936.589 623.754 939.062 627.855C941.536 631.892 942.773 637.133 942.773 643.578Z" fill="white"/>
<path d="M1048.19 643.578C1048.19 651 1046.43 657.283 1042.91 662.426C1039.46 667.504 1034.29 671.378 1027.39 674.047C1020.49 676.651 1011.89 677.953 1001.61 677.953C993.988 677.953 987.445 677.465 981.977 676.488C976.573 675.512 971.104 673.884 965.57 671.605V646.996C971.495 649.665 977.842 651.879 984.613 653.637C991.449 655.329 997.439 656.176 1002.58 656.176C1008.38 656.176 1012.51 655.329 1014.98 653.637C1017.52 651.879 1018.79 649.6 1018.79 646.801C1018.79 644.978 1018.27 643.35 1017.23 641.918C1016.25 640.421 1014.11 638.76 1010.79 636.938C1007.46 635.049 1002.26 632.608 995.16 629.613C988.324 626.749 982.693 623.852 978.266 620.922C973.904 617.992 970.648 614.542 968.5 610.57C966.417 606.534 965.375 601.423 965.375 595.238C965.375 585.147 969.281 577.562 977.094 572.484C984.971 567.341 995.486 564.77 1008.64 564.77C1015.41 564.77 1021.85 565.453 1027.97 566.82C1034.16 568.188 1040.51 570.368 1047.02 573.363L1038.03 594.848C1032.63 592.504 1027.52 590.583 1022.7 589.086C1017.95 587.589 1013.1 586.84 1008.15 586.84C1003.79 586.84 1000.5 587.426 998.285 588.598C996.072 589.77 994.965 591.56 994.965 593.969C994.965 595.727 995.518 597.289 996.625 598.656C997.797 600.023 1000.01 601.553 1003.27 603.246C1006.59 604.874 1011.44 606.99 1017.82 609.594C1024 612.133 1029.37 614.802 1033.93 617.602C1038.49 620.336 1042 623.754 1044.48 627.855C1046.95 631.892 1048.19 637.133 1048.19 643.578Z" fill="white"/>
<path d="M198.57 782.227C211.526 782.227 222.203 783.789 230.602 786.914C239.065 790.039 245.348 794.759 249.449 801.074C253.551 807.389 255.602 815.365 255.602 825C255.602 831.51 254.365 837.207 251.891 842.09C249.417 846.973 246.161 851.107 242.125 854.492C238.089 857.878 233.727 860.645 229.039 862.793L271.031 925H237.438L203.355 870.215H187.242V925H156.969V782.227H198.57ZM196.422 807.031H187.242V845.605H197.008C207.034 845.605 214.195 843.945 218.492 840.625C222.854 837.24 225.035 832.292 225.035 825.781C225.035 819.01 222.691 814.193 218.004 811.328C213.382 808.464 206.188 807.031 196.422 807.031Z" fill="white"/>
<path d="M337.676 813.77C347.767 813.77 356.458 815.723 363.75 819.629C371.042 823.47 376.673 829.069 380.645 836.426C384.616 843.783 386.602 852.767 386.602 863.379V877.832H316.191C316.517 886.23 319.023 892.839 323.711 897.656C328.464 902.409 335.039 904.785 343.438 904.785C350.404 904.785 356.784 904.069 362.578 902.637C368.372 901.204 374.329 899.056 380.449 896.191V919.238C375.046 921.908 369.382 923.861 363.457 925.098C357.598 926.335 350.469 926.953 342.07 926.953C331.133 926.953 321.432 924.935 312.969 920.898C304.57 916.862 297.962 910.71 293.145 902.441C288.392 894.173 286.016 883.757 286.016 871.191C286.016 858.431 288.164 847.819 292.461 839.355C296.823 830.827 302.878 824.447 310.625 820.215C318.372 815.918 327.389 813.77 337.676 813.77ZM337.871 834.961C332.077 834.961 327.259 836.816 323.418 840.527C319.642 844.238 317.461 850.065 316.875 858.008H358.672C358.607 853.581 357.793 849.642 356.23 846.191C354.733 842.741 352.454 840.007 349.395 837.988C346.4 835.97 342.559 834.961 337.871 834.961Z" fill="white"/>
<path d="M477.562 813.77C489.867 813.77 499.796 818.555 507.348 828.125C514.965 837.695 518.773 851.725 518.773 870.215C518.773 882.585 516.983 893.001 513.402 901.465C509.822 909.863 504.874 916.211 498.559 920.508C492.243 924.805 484.984 926.953 476.781 926.953C471.508 926.953 466.983 926.302 463.207 925C459.431 923.633 456.208 921.908 453.539 919.824C450.87 917.676 448.559 915.397 446.605 912.988H445.043C445.564 915.592 445.954 918.262 446.215 920.996C446.475 923.73 446.605 926.4 446.605 929.004V973.047H416.82V815.82H441.039L445.238 829.98H446.605C448.559 827.051 450.935 824.349 453.734 821.875C456.534 819.401 459.887 817.448 463.793 816.016C467.764 814.518 472.354 813.77 477.562 813.77ZM467.992 837.598C462.784 837.598 458.65 838.672 455.59 840.82C452.53 842.969 450.284 846.191 448.852 850.488C447.484 854.785 446.736 860.221 446.605 866.797V870.02C446.605 877.051 447.257 883.008 448.559 887.891C449.926 892.773 452.172 896.484 455.297 899.023C458.487 901.562 462.849 902.832 468.383 902.832C472.94 902.832 476.684 901.562 479.613 899.023C482.543 896.484 484.724 892.773 486.156 887.891C487.654 882.943 488.402 876.921 488.402 869.824C488.402 859.147 486.742 851.107 483.422 845.703C480.102 840.299 474.958 837.598 467.992 837.598Z" fill="white"/>
<path d="M648.602 870.215C648.602 879.329 647.365 887.402 644.891 894.434C642.482 901.465 638.934 907.422 634.246 912.305C629.624 917.122 624.025 920.768 617.449 923.242C610.939 925.716 603.582 926.953 595.379 926.953C587.697 926.953 580.633 925.716 574.188 923.242C567.807 920.768 562.241 917.122 557.488 912.305C552.801 907.422 549.155 901.465 546.551 894.434C544.012 887.402 542.742 879.329 542.742 870.215C542.742 858.105 544.891 847.852 549.188 839.453C553.484 831.055 559.604 824.674 567.547 820.312C575.49 815.951 584.962 813.77 595.965 813.77C606.186 813.77 615.236 815.951 623.113 820.312C631.056 824.674 637.273 831.055 641.766 839.453C646.323 847.852 648.602 858.105 648.602 870.215ZM573.113 870.215C573.113 877.376 573.895 883.398 575.457 888.281C577.02 893.164 579.461 896.842 582.781 899.316C586.102 901.79 590.431 903.027 595.77 903.027C601.043 903.027 605.307 901.79 608.562 899.316C611.883 896.842 614.292 893.164 615.789 888.281C617.352 883.398 618.133 877.376 618.133 870.215C618.133 862.988 617.352 856.999 615.789 852.246C614.292 847.428 611.883 843.815 608.562 841.406C605.242 838.997 600.913 837.793 595.574 837.793C587.697 837.793 581.967 840.495 578.387 845.898C574.871 851.302 573.113 859.408 573.113 870.215Z" fill="white"/>
<path d="M740.148 813.77C741.646 813.77 743.371 813.867 745.324 814.062C747.342 814.193 748.97 814.388 750.207 814.648L747.961 842.578C746.984 842.253 745.585 842.025 743.762 841.895C742.004 841.699 740.474 841.602 739.172 841.602C735.331 841.602 731.587 842.09 727.941 843.066C724.361 844.043 721.138 845.638 718.273 847.852C715.409 850 713.13 852.865 711.438 856.445C709.81 859.961 708.996 864.29 708.996 869.434V925H679.211V815.82H701.77L706.164 834.18H707.629C709.777 830.469 712.447 827.083 715.637 824.023C718.892 820.898 722.57 818.424 726.672 816.602C730.839 814.714 735.331 813.77 740.148 813.77Z" fill="white"/>
<path d="M822.027 903.223C825.283 903.223 828.44 902.897 831.5 902.246C834.625 901.595 837.717 900.781 840.777 899.805V921.973C837.587 923.405 833.616 924.577 828.863 925.488C824.176 926.465 819.033 926.953 813.434 926.953C806.923 926.953 801.064 925.911 795.855 923.828C790.712 921.68 786.643 918.001 783.648 912.793C780.719 907.52 779.254 900.195 779.254 890.82V838.184H764.996V825.586L781.402 815.625L789.996 792.578H809.039V815.82H839.605V838.184H809.039V890.82C809.039 894.987 810.211 898.112 812.555 900.195C814.964 902.214 818.121 903.223 822.027 903.223Z" fill="white"/>
<path d="M945.117 892.578C945.117 900 943.359 906.283 939.844 911.426C936.393 916.504 931.217 920.378 924.316 923.047C917.415 925.651 908.822 926.953 898.535 926.953C890.918 926.953 884.375 926.465 878.906 925.488C873.503 924.512 868.034 922.884 862.5 920.605V895.996C868.424 898.665 874.772 900.879 881.543 902.637C888.379 904.329 894.368 905.176 899.512 905.176C905.306 905.176 909.44 904.329 911.914 902.637C914.453 900.879 915.723 898.6 915.723 895.801C915.723 893.978 915.202 892.35 914.16 890.918C913.184 889.421 911.035 887.76 907.715 885.938C904.395 884.049 899.186 881.608 892.09 878.613C885.254 875.749 879.622 872.852 875.195 869.922C870.833 866.992 867.578 863.542 865.43 859.57C863.346 855.534 862.305 850.423 862.305 844.238C862.305 834.147 866.211 826.562 874.023 821.484C881.901 816.341 892.415 813.77 905.566 813.77C912.337 813.77 918.783 814.453 924.902 815.82C931.087 817.188 937.435 819.368 943.945 822.363L934.961 843.848C929.557 841.504 924.447 839.583 919.629 838.086C914.876 836.589 910.026 835.84 905.078 835.84C900.716 835.84 897.428 836.426 895.215 837.598C893.001 838.77 891.895 840.56 891.895 842.969C891.895 844.727 892.448 846.289 893.555 847.656C894.727 849.023 896.94 850.553 900.195 852.246C903.516 853.874 908.366 855.99 914.746 858.594C920.931 861.133 926.302 863.802 930.859 866.602C935.417 869.336 938.932 872.754 941.406 876.855C943.88 880.892 945.117 886.133 945.117 892.578Z" fill="white"/>
</svg>
