<svg width="32" height="33" viewBox="0 0 32 33" fill="none" xmlns="http://www.w3.org/2000/svg">
<path d="M16.0003 26.1C12.667 26.1 9.72032 24.3933 8.00033 21.8333C8.04033 19.1666 13.3337 17.7 16.0003 17.7C18.667 17.7 23.9603 19.1666 24.0003 21.8333C22.2803 24.3933 19.3337 26.1 16.0003 26.1ZM16.0003 7.16663C17.0612 7.16663 18.0786 7.58805 18.8288 8.3382C19.5789 9.08834 20.0003 10.1058 20.0003 11.1666C20.0003 12.2275 19.5789 13.2449 18.8288 13.9951C18.0786 14.7452 17.0612 15.1666 16.0003 15.1666C14.9395 15.1666 13.922 14.7452 13.1719 13.9951C12.4218 13.2449 12.0003 12.2275 12.0003 11.1666C12.0003 10.1058 12.4218 9.08834 13.1719 8.3382C13.922 7.58805 14.9395 7.16663 16.0003 7.16663ZM16.0003 3.16663C14.2494 3.16663 12.5156 3.5115 10.8979 4.18157C9.2802 4.85163 7.81035 5.83375 6.57223 7.07187C4.07175 9.57235 2.66699 12.9637 2.66699 16.5C2.66699 20.0362 4.07175 23.4276 6.57223 25.928C7.81035 27.1662 9.2802 28.1483 10.8979 28.8184C12.5156 29.4884 14.2494 29.8333 16.0003 29.8333C19.5365 29.8333 22.9279 28.4285 25.4284 25.928C27.9289 23.4276 29.3337 20.0362 29.3337 16.5C29.3337 9.12663 23.3337 3.16663 16.0003 3.16663Z" fill="#AAAAAA"/>
</svg>
