<svg width="187" height="36" viewBox="0 0 187 36" fill="none" xmlns="http://www.w3.org/2000/svg">
<path d="M0 3C0 1.34315 1.34315 0 3 0H176.299C177.443 0 178.488 0.65112 178.992 1.67855L186.352 16.6785C186.761 17.5121 186.761 18.4879 186.352 19.3214L178.992 34.3214C178.488 35.3489 177.443 36 176.299 36H3C1.34315 36 0 34.6569 0 33V3Z" fill="#0263C7"/>
<path d="M28.7734 18.1797C28.7734 19.4661 28.5339 20.5417 28.0547 21.4062C27.5755 22.2656 26.8802 22.9141 25.9688 23.3516C25.0573 23.7839 23.9583 24 22.6719 24H19.5V12.5781H23.0156C24.1979 12.5781 25.2188 12.7917 26.0781 13.2188C26.9375 13.6406 27.6016 14.2682 28.0703 15.1016C28.5391 15.9297 28.7734 16.9557 28.7734 18.1797ZM26.8203 18.2344C26.8203 17.2969 26.6719 16.526 26.375 15.9219C26.0833 15.3177 25.651 14.8698 25.0781 14.5781C24.5104 14.2812 23.8099 14.1328 22.9766 14.1328H21.375V22.4297H22.7031C24.0833 22.4297 25.1146 22.0781 25.7969 21.375C26.4792 20.6719 26.8203 19.625 26.8203 18.2344ZM34.4922 15.1875C35.263 15.1875 35.9245 15.3464 36.4766 15.6641C37.0286 15.9818 37.4531 16.4323 37.75 17.0156C38.0469 17.599 38.1953 18.2969 38.1953 19.1094V20.0938H32.4219C32.4427 20.9323 32.6667 21.5781 33.0938 22.0312C33.526 22.4844 34.1302 22.7109 34.9062 22.7109C35.4583 22.7109 35.9531 22.6589 36.3906 22.5547C36.8333 22.4453 37.2891 22.2865 37.7578 22.0781V23.5703C37.3255 23.7734 36.8854 23.9219 36.4375 24.0156C35.9896 24.1094 35.4531 24.1562 34.8281 24.1562C33.9792 24.1562 33.2318 23.9922 32.5859 23.6641C31.9453 23.3307 31.4427 22.8359 31.0781 22.1797C30.7188 21.5234 30.5391 20.7083 30.5391 19.7344C30.5391 18.7656 30.7031 17.9427 31.0312 17.2656C31.3594 16.5885 31.8203 16.0729 32.4141 15.7188C33.0078 15.3646 33.7005 15.1875 34.4922 15.1875ZM34.4922 16.5703C33.9141 16.5703 33.4453 16.7578 33.0859 17.1328C32.7318 17.5078 32.5234 18.0573 32.4609 18.7812H36.3984C36.3932 18.349 36.3203 17.9661 36.1797 17.6328C36.0443 17.2995 35.8359 17.0391 35.5547 16.8516C35.2786 16.6641 34.9245 16.5703 34.4922 16.5703ZM42.1094 24H40.2656V11.8438H42.1094V24ZM46.5703 15.3516V24H44.7344V15.3516H46.5703ZM45.6641 12.0391C45.9453 12.0391 46.1875 12.1146 46.3906 12.2656C46.599 12.4167 46.7031 12.6771 46.7031 13.0469C46.7031 13.4115 46.599 13.6719 46.3906 13.8281C46.1875 13.9792 45.9453 14.0547 45.6641 14.0547C45.3724 14.0547 45.125 13.9792 44.9219 13.8281C44.724 13.6719 44.625 13.4115 44.625 13.0469C44.625 12.6771 44.724 12.4167 44.9219 12.2656C45.125 12.1146 45.3724 12.0391 45.6641 12.0391ZM51.1797 24L47.8906 15.3516H49.8359L51.6172 20.4297C51.7318 20.7526 51.8359 21.1016 51.9297 21.4766C52.0234 21.8516 52.0885 22.1667 52.125 22.4219H52.1875C52.224 22.1562 52.2943 21.8385 52.3984 21.4688C52.5026 21.0938 52.6094 20.7474 52.7188 20.4297L54.5 15.3516H56.4375L53.1484 24H51.1797ZM61.1953 15.1875C61.9661 15.1875 62.6276 15.3464 63.1797 15.6641C63.7318 15.9818 64.1562 16.4323 64.4531 17.0156C64.75 17.599 64.8984 18.2969 64.8984 19.1094V20.0938H59.125C59.1458 20.9323 59.3698 21.5781 59.7969 22.0312C60.2292 22.4844 60.8333 22.7109 61.6094 22.7109C62.1615 22.7109 62.6562 22.6589 63.0938 22.5547C63.5365 22.4453 63.9922 22.2865 64.4609 22.0781V23.5703C64.0286 23.7734 63.5885 23.9219 63.1406 24.0156C62.6927 24.1094 62.1562 24.1562 61.5312 24.1562C60.6823 24.1562 59.9349 23.9922 59.2891 23.6641C58.6484 23.3307 58.1458 22.8359 57.7812 22.1797C57.4219 21.5234 57.2422 20.7083 57.2422 19.7344C57.2422 18.7656 57.4062 17.9427 57.7344 17.2656C58.0625 16.5885 58.5234 16.0729 59.1172 15.7188C59.7109 15.3646 60.4036 15.1875 61.1953 15.1875ZM61.1953 16.5703C60.6172 16.5703 60.1484 16.7578 59.7891 17.1328C59.4349 17.5078 59.2266 18.0573 59.1641 18.7812H63.1016C63.0964 18.349 63.0234 17.9661 62.8828 17.6328C62.7474 17.2995 62.5391 17.0391 62.2578 16.8516C61.9818 16.6641 61.6276 16.5703 61.1953 16.5703ZM71.3516 15.1875C71.4974 15.1875 71.6562 15.1953 71.8281 15.2109C72 15.2266 72.1484 15.2474 72.2734 15.2734L72.1016 16.9922C71.9922 16.9609 71.8568 16.9375 71.6953 16.9219C71.5391 16.9062 71.3984 16.8984 71.2734 16.8984C70.9453 16.8984 70.6328 16.9531 70.3359 17.0625C70.0391 17.1667 69.776 17.3281 69.5469 17.5469C69.3177 17.7604 69.138 18.0286 69.0078 18.3516C68.8776 18.6745 68.8125 19.0495 68.8125 19.4766V24H66.9688V15.3516H68.4062L68.6562 16.875H68.7422C68.9141 16.5677 69.1276 16.2865 69.3828 16.0312C69.638 15.776 69.9297 15.5729 70.2578 15.4219C70.5911 15.2656 70.9557 15.1875 71.3516 15.1875ZM72.5703 15.3516H74.5703L76.3438 20.2891C76.4219 20.513 76.4922 20.7344 76.5547 20.9531C76.6224 21.1667 76.6797 21.3776 76.7266 21.5859C76.7786 21.7943 76.8203 22.0026 76.8516 22.2109H76.8984C76.9505 21.9401 77.0234 21.638 77.1172 21.3047C77.2161 20.9661 77.3255 20.6276 77.4453 20.2891L79.1484 15.3516H81.125L77.4141 25.1875C77.2005 25.75 76.9375 26.2292 76.625 26.625C76.3177 27.026 75.9531 27.3281 75.5312 27.5312C75.1094 27.7396 74.6276 27.8438 74.0859 27.8438C73.8255 27.8438 73.599 27.8281 73.4062 27.7969C73.2135 27.7708 73.0495 27.7422 72.9141 27.7109V26.2422C73.0234 26.2682 73.1615 26.2917 73.3281 26.3125C73.4948 26.3333 73.6667 26.3438 73.8438 26.3438C74.1719 26.3438 74.4557 26.2786 74.6953 26.1484C74.9349 26.0182 75.138 25.8333 75.3047 25.5938C75.4714 25.3594 75.6094 25.0911 75.7188 24.7891L76.0234 23.9766L72.5703 15.3516ZM96.0547 18.1797C96.0547 19.4661 95.8151 20.5417 95.3359 21.4062C94.8568 22.2656 94.1615 22.9141 93.25 23.3516C92.3385 23.7839 91.2396 24 89.9531 24H86.7812V12.5781H90.2969C91.4792 12.5781 92.5 12.7917 93.3594 13.2188C94.2188 13.6406 94.8828 14.2682 95.3516 15.1016C95.8203 15.9297 96.0547 16.9557 96.0547 18.1797ZM94.1016 18.2344C94.1016 17.2969 93.9531 16.526 93.6562 15.9219C93.3646 15.3177 92.9323 14.8698 92.3594 14.5781C91.7917 14.2812 91.0911 14.1328 90.2578 14.1328H88.6562V22.4297H89.9844C91.3646 22.4297 92.3958 22.0781 93.0781 21.375C93.7604 20.6719 94.1016 19.625 94.1016 18.2344ZM101.773 15.1875C102.544 15.1875 103.206 15.3464 103.758 15.6641C104.31 15.9818 104.734 16.4323 105.031 17.0156C105.328 17.599 105.477 18.2969 105.477 19.1094V20.0938H99.7031C99.724 20.9323 99.9479 21.5781 100.375 22.0312C100.807 22.4844 101.411 22.7109 102.188 22.7109C102.74 22.7109 103.234 22.6589 103.672 22.5547C104.115 22.4453 104.57 22.2865 105.039 22.0781V23.5703C104.607 23.7734 104.167 23.9219 103.719 24.0156C103.271 24.1094 102.734 24.1562 102.109 24.1562C101.26 24.1562 100.513 23.9922 99.8672 23.6641C99.2266 23.3307 98.724 22.8359 98.3594 22.1797C98 21.5234 97.8203 20.7083 97.8203 19.7344C97.8203 18.7656 97.9844 17.9427 98.3125 17.2656C98.6406 16.5885 99.1016 16.0729 99.6953 15.7188C100.289 15.3646 100.982 15.1875 101.773 15.1875ZM101.773 16.5703C101.195 16.5703 100.727 16.7578 100.367 17.1328C100.013 17.5078 99.8047 18.0573 99.7422 18.7812H103.68C103.674 18.349 103.602 17.9661 103.461 17.6328C103.326 17.2995 103.117 17.0391 102.836 16.8516C102.56 16.6641 102.206 16.5703 101.773 16.5703ZM110.766 22.6719C111.005 22.6719 111.242 22.651 111.477 22.6094C111.711 22.5625 111.924 22.5078 112.117 22.4453V23.8359C111.914 23.9245 111.651 24 111.328 24.0625C111.005 24.125 110.669 24.1562 110.32 24.1562C109.831 24.1562 109.391 24.0755 109 23.9141C108.609 23.7474 108.299 23.4635 108.07 23.0625C107.841 22.6615 107.727 22.1068 107.727 21.3984V16.75H106.547V15.9297L107.812 15.2812L108.414 13.4297H109.57V15.3516H112.047V16.75H109.57V21.375C109.57 21.8125 109.68 22.138 109.898 22.3516C110.117 22.5651 110.406 22.6719 110.766 22.6719ZM117.266 15.1875C118.359 15.1875 119.185 15.4297 119.742 15.9141C120.305 16.3984 120.586 17.1536 120.586 18.1797V24H119.281L118.93 22.7734H118.867C118.622 23.0859 118.37 23.3438 118.109 23.5469C117.849 23.75 117.547 23.901 117.203 24C116.865 24.1042 116.451 24.1562 115.961 24.1562C115.445 24.1562 114.984 24.0625 114.578 23.875C114.172 23.6823 113.852 23.3906 113.617 23C113.383 22.6094 113.266 22.1146 113.266 21.5156C113.266 20.625 113.596 19.9557 114.258 19.5078C114.924 19.0599 115.93 18.8125 117.273 18.7656L118.773 18.7109V18.2578C118.773 17.6589 118.633 17.2318 118.352 16.9766C118.076 16.7214 117.685 16.5938 117.18 16.5938C116.747 16.5938 116.328 16.6562 115.922 16.7812C115.516 16.9062 115.12 17.0599 114.734 17.2422L114.141 15.9453C114.562 15.7214 115.042 15.5391 115.578 15.3984C116.12 15.2578 116.682 15.1875 117.266 15.1875ZM118.766 19.8672L117.648 19.9062C116.732 19.9375 116.089 20.0938 115.719 20.375C115.349 20.6562 115.164 21.0417 115.164 21.5312C115.164 21.9583 115.292 22.2708 115.547 22.4688C115.802 22.6615 116.138 22.7578 116.555 22.7578C117.19 22.7578 117.716 22.5781 118.133 22.2188C118.555 21.8542 118.766 21.3203 118.766 20.6172V19.8672ZM124.992 15.3516V24H123.156V15.3516H124.992ZM124.086 12.0391C124.367 12.0391 124.609 12.1146 124.812 12.2656C125.021 12.4167 125.125 12.6771 125.125 13.0469C125.125 13.4115 125.021 13.6719 124.812 13.8281C124.609 13.9792 124.367 14.0547 124.086 14.0547C123.794 14.0547 123.547 13.9792 123.344 13.8281C123.146 13.6719 123.047 13.4115 123.047 13.0469C123.047 12.6771 123.146 12.4167 123.344 12.2656C123.547 12.1146 123.794 12.0391 124.086 12.0391ZM129.469 24H127.625V11.8438H129.469V24ZM137.906 21.5312C137.906 22.099 137.768 22.5781 137.492 22.9688C137.216 23.3594 136.812 23.6562 136.281 23.8594C135.755 24.0573 135.109 24.1562 134.344 24.1562C133.74 24.1562 133.219 24.112 132.781 24.0234C132.349 23.9401 131.94 23.8099 131.555 23.6328V22.0469C131.966 22.2396 132.427 22.4062 132.938 22.5469C133.453 22.6875 133.94 22.7578 134.398 22.7578C135.003 22.7578 135.438 22.6641 135.703 22.4766C135.969 22.2839 136.102 22.0286 136.102 21.7109C136.102 21.5234 136.047 21.3568 135.938 21.2109C135.833 21.0599 135.635 20.9062 135.344 20.75C135.057 20.5885 134.635 20.3958 134.078 20.1719C133.531 19.9531 133.07 19.7344 132.695 19.5156C132.32 19.2969 132.036 19.0339 131.844 18.7266C131.651 18.4141 131.555 18.0156 131.555 17.5312C131.555 16.7656 131.857 16.1849 132.461 15.7891C133.07 15.388 133.875 15.1875 134.875 15.1875C135.406 15.1875 135.906 15.2422 136.375 15.3516C136.849 15.4557 137.312 15.6094 137.766 15.8125L137.188 17.1953C136.797 17.0234 136.404 16.8828 136.008 16.7734C135.617 16.6589 135.219 16.6016 134.812 16.6016C134.339 16.6016 133.977 16.6745 133.727 16.8203C133.482 16.9661 133.359 17.1745 133.359 17.4453C133.359 17.6484 133.419 17.8203 133.539 17.9609C133.659 18.1016 133.865 18.2422 134.156 18.3828C134.453 18.5234 134.865 18.6979 135.391 18.9062C135.906 19.1042 136.352 19.3125 136.727 19.5312C137.107 19.7448 137.398 20.0078 137.602 20.3203C137.805 20.6328 137.906 21.0365 137.906 21.5312Z" fill="white"/>
</svg>
