<svg width="37" height="36" viewBox="0 0 37 36" fill="none" xmlns="http://www.w3.org/2000/svg">
<path d="M23 13.5H26V16.5H23V13.5ZM26 7.5H23V10.5H26V7.5ZM17 22.5H20V19.5H17V22.5ZM20 7.5H17V10.5H20V7.5ZM17 16.5H20V13.5H17V16.5ZM14 7.5H11V10.5H14V7.5ZM14 13.5H11V16.5H14V13.5ZM22.325 31.5H20V26.25H17V31.5H8V4.5H29V16.545C30.065 16.635 31.085 16.965 32 17.445V1.5H5V34.5H24.365C23.75 33.66 23 32.64 22.325 31.5ZM11 28.5H14V25.5H11V28.5ZM14 19.5H11V22.5H14V19.5ZM33.5 24.75C33.5 28.65 28.25 34.5 28.25 34.5C28.25 34.5 23 28.65 23 24.75C23 21.9 25.4 19.5 28.25 19.5C31.1 19.5 33.5 21.9 33.5 24.75ZM30.05 24.9C30.05 24 29.15 23.1 28.25 23.1C27.35 23.1 26.45 23.85 26.45 24.9C26.45 25.8 27.2 26.7 28.25 26.7C29.3 26.7 30.2 25.8 30.05 24.9Z" fill="white"/>
</svg>
