<svg width="187" height="36" viewBox="0 0 187 36" fill="none" xmlns="http://www.w3.org/2000/svg">
<path d="M0 3C0 1.34315 1.34315 0 3 0H176.299C177.443 0 178.488 0.65112 178.992 1.67855L186.352 16.6785C186.761 17.5121 186.761 18.4879 186.352 19.3214L178.992 34.3214C178.488 35.3489 177.443 36 176.299 36H3C1.34315 36 0 34.6569 0 33V3Z" fill="#0263C7"/>
<path d="M22.8203 12.5781C24.2943 12.5781 25.3698 12.8802 26.0469 13.4844C26.724 14.0885 27.0625 14.9349 27.0625 16.0234C27.0625 16.5182 26.9844 16.9896 26.8281 17.4375C26.6771 17.8802 26.4271 18.2734 26.0781 18.6172C25.7292 18.9557 25.2682 19.224 24.6953 19.4219C24.1276 19.6198 23.4271 19.7188 22.5938 19.7188H21.375V24H19.5V12.5781H22.8203ZM22.6953 14.1328H21.375V18.1562H22.3984C22.987 18.1562 23.487 18.0885 23.8984 17.9531C24.3099 17.8125 24.6224 17.5911 24.8359 17.2891C25.0495 16.987 25.1562 16.5885 25.1562 16.0938C25.1562 15.4323 24.9557 14.9401 24.5547 14.6172C24.1589 14.2943 23.5391 14.1328 22.6953 14.1328ZM32.6016 15.1875C33.3724 15.1875 34.0339 15.3464 34.5859 15.6641C35.138 15.9818 35.5625 16.4323 35.8594 17.0156C36.1562 17.599 36.3047 18.2969 36.3047 19.1094V20.0938H30.5312C30.5521 20.9323 30.776 21.5781 31.2031 22.0312C31.6354 22.4844 32.2396 22.7109 33.0156 22.7109C33.5677 22.7109 34.0625 22.6589 34.5 22.5547C34.9427 22.4453 35.3984 22.2865 35.8672 22.0781V23.5703C35.4349 23.7734 34.9948 23.9219 34.5469 24.0156C34.099 24.1094 33.5625 24.1562 32.9375 24.1562C32.0885 24.1562 31.3411 23.9922 30.6953 23.6641C30.0547 23.3307 29.5521 22.8359 29.1875 22.1797C28.8281 21.5234 28.6484 20.7083 28.6484 19.7344C28.6484 18.7656 28.8125 17.9427 29.1406 17.2656C29.4688 16.5885 29.9297 16.0729 30.5234 15.7188C31.1172 15.3646 31.8099 15.1875 32.6016 15.1875ZM32.6016 16.5703C32.0234 16.5703 31.5547 16.7578 31.1953 17.1328C30.8411 17.5078 30.6328 18.0573 30.5703 18.7812H34.5078C34.5026 18.349 34.4297 17.9661 34.2891 17.6328C34.1536 17.2995 33.9453 17.0391 33.6641 16.8516C33.388 16.6641 33.0339 16.5703 32.6016 16.5703ZM42.7578 15.1875C42.9036 15.1875 43.0625 15.1953 43.2344 15.2109C43.4062 15.2266 43.5547 15.2474 43.6797 15.2734L43.5078 16.9922C43.3984 16.9609 43.263 16.9375 43.1016 16.9219C42.9453 16.9062 42.8047 16.8984 42.6797 16.8984C42.3516 16.8984 42.0391 16.9531 41.7422 17.0625C41.4453 17.1667 41.1823 17.3281 40.9531 17.5469C40.724 17.7604 40.5443 18.0286 40.4141 18.3516C40.2839 18.6745 40.2188 19.0495 40.2188 19.4766V24H38.375V15.3516H39.8125L40.0625 16.875H40.1484C40.3203 16.5677 40.5339 16.2865 40.7891 16.0312C41.0443 15.776 41.3359 15.5729 41.6641 15.4219C41.9974 15.2656 42.362 15.1875 42.7578 15.1875ZM51.0938 21.5312C51.0938 22.099 50.9557 22.5781 50.6797 22.9688C50.4036 23.3594 50 23.6562 49.4688 23.8594C48.9427 24.0573 48.2969 24.1562 47.5312 24.1562C46.9271 24.1562 46.4062 24.112 45.9688 24.0234C45.5365 23.9401 45.1276 23.8099 44.7422 23.6328V22.0469C45.1536 22.2396 45.6146 22.4062 46.125 22.5469C46.6406 22.6875 47.1276 22.7578 47.5859 22.7578C48.1901 22.7578 48.625 22.6641 48.8906 22.4766C49.1562 22.2839 49.2891 22.0286 49.2891 21.7109C49.2891 21.5234 49.2344 21.3568 49.125 21.2109C49.0208 21.0599 48.8229 20.9062 48.5312 20.75C48.2448 20.5885 47.8229 20.3958 47.2656 20.1719C46.7188 19.9531 46.2578 19.7344 45.8828 19.5156C45.5078 19.2969 45.224 19.0339 45.0312 18.7266C44.8385 18.4141 44.7422 18.0156 44.7422 17.5312C44.7422 16.7656 45.0443 16.1849 45.6484 15.7891C46.2578 15.388 47.0625 15.1875 48.0625 15.1875C48.5938 15.1875 49.0938 15.2422 49.5625 15.3516C50.0365 15.4557 50.5 15.6094 50.9531 15.8125L50.375 17.1953C49.9844 17.0234 49.5911 16.8828 49.1953 16.7734C48.8047 16.6589 48.4062 16.6016 48 16.6016C47.526 16.6016 47.1641 16.6745 46.9141 16.8203C46.6693 16.9661 46.5469 17.1745 46.5469 17.4453C46.5469 17.6484 46.6068 17.8203 46.7266 17.9609C46.8464 18.1016 47.0521 18.2422 47.3438 18.3828C47.6406 18.5234 48.0521 18.6979 48.5781 18.9062C49.0938 19.1042 49.5391 19.3125 49.9141 19.5312C50.2943 19.7448 50.5859 20.0078 50.7891 20.3203C50.9922 20.6328 51.0938 21.0365 51.0938 21.5312ZM60.7344 19.6562C60.7344 20.375 60.6406 21.013 60.4531 21.5703C60.2656 22.1276 59.9922 22.599 59.6328 22.9844C59.2734 23.3646 58.8411 23.6562 58.3359 23.8594C57.8307 24.0573 57.2604 24.1562 56.625 24.1562C56.0312 24.1562 55.487 24.0573 54.9922 23.8594C54.4974 23.6562 54.0677 23.3646 53.7031 22.9844C53.3438 22.599 53.0651 22.1276 52.8672 21.5703C52.6693 21.013 52.5703 20.375 52.5703 19.6562C52.5703 18.7031 52.7344 17.8958 53.0625 17.2344C53.3958 16.5677 53.8698 16.0599 54.4844 15.7109C55.099 15.362 55.8307 15.1875 56.6797 15.1875C57.4766 15.1875 58.1797 15.362 58.7891 15.7109C59.3984 16.0599 59.875 16.5677 60.2188 17.2344C60.5625 17.901 60.7344 18.7083 60.7344 19.6562ZM54.4609 19.6562C54.4609 20.2865 54.5365 20.8255 54.6875 21.2734C54.8438 21.7214 55.0833 22.0651 55.4062 22.3047C55.7292 22.5391 56.1458 22.6562 56.6562 22.6562C57.1667 22.6562 57.5833 22.5391 57.9062 22.3047C58.2292 22.0651 58.4661 21.7214 58.6172 21.2734C58.7682 20.8255 58.8438 20.2865 58.8438 19.6562C58.8438 19.026 58.7682 18.4922 58.6172 18.0547C58.4661 17.612 58.2292 17.276 57.9062 17.0469C57.5833 16.8125 57.1641 16.6953 56.6484 16.6953C55.888 16.6953 55.3333 16.9505 54.9844 17.4609C54.6354 17.9714 54.4609 18.7031 54.4609 19.6562ZM67.3516 15.1875C68.3255 15.1875 69.0833 15.4401 69.625 15.9453C70.1719 16.4453 70.4453 17.25 70.4453 18.3594V24H68.6094V18.7031C68.6094 18.0312 68.4714 17.5286 68.1953 17.1953C67.9193 16.8568 67.4922 16.6875 66.9141 16.6875C66.0755 16.6875 65.4922 16.9453 65.1641 17.4609C64.8411 17.9766 64.6797 18.724 64.6797 19.7031V24H62.8438V15.3516H64.2734L64.5312 16.5234H64.6328C64.8203 16.2214 65.0521 15.974 65.3281 15.7812C65.6094 15.5833 65.9219 15.4349 66.2656 15.3359C66.6146 15.237 66.9766 15.1875 67.3516 15.1875ZM76.4062 15.1875C77.5 15.1875 78.3255 15.4297 78.8828 15.9141C79.4453 16.3984 79.7266 17.1536 79.7266 18.1797V24H78.4219L78.0703 22.7734H78.0078C77.763 23.0859 77.5104 23.3438 77.25 23.5469C76.9896 23.75 76.6875 23.901 76.3438 24C76.0052 24.1042 75.5911 24.1562 75.1016 24.1562C74.5859 24.1562 74.125 24.0625 73.7188 23.875C73.3125 23.6823 72.9922 23.3906 72.7578 23C72.5234 22.6094 72.4062 22.1146 72.4062 21.5156C72.4062 20.625 72.737 19.9557 73.3984 19.5078C74.0651 19.0599 75.0703 18.8125 76.4141 18.7656L77.9141 18.7109V18.2578C77.9141 17.6589 77.7734 17.2318 77.4922 16.9766C77.2161 16.7214 76.8255 16.5938 76.3203 16.5938C75.888 16.5938 75.4688 16.6562 75.0625 16.7812C74.6562 16.9062 74.2604 17.0599 73.875 17.2422L73.2812 15.9453C73.7031 15.7214 74.1823 15.5391 74.7188 15.3984C75.2604 15.2578 75.8229 15.1875 76.4062 15.1875ZM77.9062 19.8672L76.7891 19.9062C75.8724 19.9375 75.2292 20.0938 74.8594 20.375C74.4896 20.6562 74.3047 21.0417 74.3047 21.5312C74.3047 21.9583 74.4323 22.2708 74.6875 22.4688C74.9427 22.6615 75.2786 22.7578 75.6953 22.7578C76.3307 22.7578 76.8568 22.5781 77.2734 22.2188C77.6953 21.8542 77.9062 21.3203 77.9062 20.6172V19.8672ZM84.1406 24H82.2969V11.8438H84.1406V24ZM100.383 18.1797C100.383 19.4661 100.143 20.5417 99.6641 21.4062C99.1849 22.2656 98.4896 22.9141 97.5781 23.3516C96.6667 23.7839 95.5677 24 94.2812 24H91.1094V12.5781H94.625C95.8073 12.5781 96.8281 12.7917 97.6875 13.2188C98.5469 13.6406 99.2109 14.2682 99.6797 15.1016C100.148 15.9297 100.383 16.9557 100.383 18.1797ZM98.4297 18.2344C98.4297 17.2969 98.2812 16.526 97.9844 15.9219C97.6927 15.3177 97.2604 14.8698 96.6875 14.5781C96.1198 14.2812 95.4193 14.1328 94.5859 14.1328H92.9844V22.4297H94.3125C95.6927 22.4297 96.724 22.0781 97.4062 21.375C98.0885 20.6719 98.4297 19.625 98.4297 18.2344ZM106.102 15.1875C106.872 15.1875 107.534 15.3464 108.086 15.6641C108.638 15.9818 109.062 16.4323 109.359 17.0156C109.656 17.599 109.805 18.2969 109.805 19.1094V20.0938H104.031C104.052 20.9323 104.276 21.5781 104.703 22.0312C105.135 22.4844 105.74 22.7109 106.516 22.7109C107.068 22.7109 107.562 22.6589 108 22.5547C108.443 22.4453 108.898 22.2865 109.367 22.0781V23.5703C108.935 23.7734 108.495 23.9219 108.047 24.0156C107.599 24.1094 107.062 24.1562 106.438 24.1562C105.589 24.1562 104.841 23.9922 104.195 23.6641C103.555 23.3307 103.052 22.8359 102.688 22.1797C102.328 21.5234 102.148 20.7083 102.148 19.7344C102.148 18.7656 102.312 17.9427 102.641 17.2656C102.969 16.5885 103.43 16.0729 104.023 15.7188C104.617 15.3646 105.31 15.1875 106.102 15.1875ZM106.102 16.5703C105.523 16.5703 105.055 16.7578 104.695 17.1328C104.341 17.5078 104.133 18.0573 104.07 18.7812H108.008C108.003 18.349 107.93 17.9661 107.789 17.6328C107.654 17.2995 107.445 17.0391 107.164 16.8516C106.888 16.6641 106.534 16.5703 106.102 16.5703ZM115.094 22.6719C115.333 22.6719 115.57 22.651 115.805 22.6094C116.039 22.5625 116.253 22.5078 116.445 22.4453V23.8359C116.242 23.9245 115.979 24 115.656 24.0625C115.333 24.125 114.997 24.1562 114.648 24.1562C114.159 24.1562 113.719 24.0755 113.328 23.9141C112.938 23.7474 112.628 23.4635 112.398 23.0625C112.169 22.6615 112.055 22.1068 112.055 21.3984V16.75H110.875V15.9297L112.141 15.2812L112.742 13.4297H113.898V15.3516H116.375V16.75H113.898V21.375C113.898 21.8125 114.008 22.138 114.227 22.3516C114.445 22.5651 114.734 22.6719 115.094 22.6719ZM121.594 15.1875C122.688 15.1875 123.513 15.4297 124.07 15.9141C124.633 16.3984 124.914 17.1536 124.914 18.1797V24H123.609L123.258 22.7734H123.195C122.951 23.0859 122.698 23.3438 122.438 23.5469C122.177 23.75 121.875 23.901 121.531 24C121.193 24.1042 120.779 24.1562 120.289 24.1562C119.773 24.1562 119.312 24.0625 118.906 23.875C118.5 23.6823 118.18 23.3906 117.945 23C117.711 22.6094 117.594 22.1146 117.594 21.5156C117.594 20.625 117.924 19.9557 118.586 19.5078C119.253 19.0599 120.258 18.8125 121.602 18.7656L123.102 18.7109V18.2578C123.102 17.6589 122.961 17.2318 122.68 16.9766C122.404 16.7214 122.013 16.5938 121.508 16.5938C121.076 16.5938 120.656 16.6562 120.25 16.7812C119.844 16.9062 119.448 17.0599 119.062 17.2422L118.469 15.9453C118.891 15.7214 119.37 15.5391 119.906 15.3984C120.448 15.2578 121.01 15.1875 121.594 15.1875ZM123.094 19.8672L121.977 19.9062C121.06 19.9375 120.417 20.0938 120.047 20.375C119.677 20.6562 119.492 21.0417 119.492 21.5312C119.492 21.9583 119.62 22.2708 119.875 22.4688C120.13 22.6615 120.466 22.7578 120.883 22.7578C121.518 22.7578 122.044 22.5781 122.461 22.2188C122.883 21.8542 123.094 21.3203 123.094 20.6172V19.8672ZM129.32 15.3516V24H127.484V15.3516H129.32ZM128.414 12.0391C128.695 12.0391 128.938 12.1146 129.141 12.2656C129.349 12.4167 129.453 12.6771 129.453 13.0469C129.453 13.4115 129.349 13.6719 129.141 13.8281C128.938 13.9792 128.695 14.0547 128.414 14.0547C128.122 14.0547 127.875 13.9792 127.672 13.8281C127.474 13.6719 127.375 13.4115 127.375 13.0469C127.375 12.6771 127.474 12.4167 127.672 12.2656C127.875 12.1146 128.122 12.0391 128.414 12.0391ZM133.797 24H131.953V11.8438H133.797V24ZM142.234 21.5312C142.234 22.099 142.096 22.5781 141.82 22.9688C141.544 23.3594 141.141 23.6562 140.609 23.8594C140.083 24.0573 139.438 24.1562 138.672 24.1562C138.068 24.1562 137.547 24.112 137.109 24.0234C136.677 23.9401 136.268 23.8099 135.883 23.6328V22.0469C136.294 22.2396 136.755 22.4062 137.266 22.5469C137.781 22.6875 138.268 22.7578 138.727 22.7578C139.331 22.7578 139.766 22.6641 140.031 22.4766C140.297 22.2839 140.43 22.0286 140.43 21.7109C140.43 21.5234 140.375 21.3568 140.266 21.2109C140.161 21.0599 139.964 20.9062 139.672 20.75C139.385 20.5885 138.964 20.3958 138.406 20.1719C137.859 19.9531 137.398 19.7344 137.023 19.5156C136.648 19.2969 136.365 19.0339 136.172 18.7266C135.979 18.4141 135.883 18.0156 135.883 17.5312C135.883 16.7656 136.185 16.1849 136.789 15.7891C137.398 15.388 138.203 15.1875 139.203 15.1875C139.734 15.1875 140.234 15.2422 140.703 15.3516C141.177 15.4557 141.641 15.6094 142.094 15.8125L141.516 17.1953C141.125 17.0234 140.732 16.8828 140.336 16.7734C139.945 16.6589 139.547 16.6016 139.141 16.6016C138.667 16.6016 138.305 16.6745 138.055 16.8203C137.81 16.9661 137.688 17.1745 137.688 17.4453C137.688 17.6484 137.747 17.8203 137.867 17.9609C137.987 18.1016 138.193 18.2422 138.484 18.3828C138.781 18.5234 139.193 18.6979 139.719 18.9062C140.234 19.1042 140.68 19.3125 141.055 19.5312C141.435 19.7448 141.727 20.0078 141.93 20.3203C142.133 20.6328 142.234 21.0365 142.234 21.5312Z" fill="white"/>
</svg>
