<svg width="18" height="18" viewBox="0 0 18 18" fill="none" xmlns="http://www.w3.org/2000/svg">
<path d="M6.89445 0C8.63491 0 10.3041 0.684819 11.5348 1.90381C12.7655 3.12279 13.4569 4.77609 13.4569 6.5C13.4569 8.11 12.8612 9.59 11.8819 10.73L12.1545 11H12.9521L18.0001 16L16.4857 17.5L11.4377 12.5V11.71L11.1651 11.44C10.0141 12.41 8.51991 13 6.89445 13C5.15399 13 3.48481 12.3152 2.25412 11.0962C1.02343 9.87721 0.332031 8.22391 0.332031 6.5C0.332031 4.77609 1.02343 3.12279 2.25412 1.90381C3.48481 0.684819 5.15399 0 6.89445 0ZM6.89445 2C4.37044 2 2.35124 4 2.35124 6.5C2.35124 9 4.37044 11 6.89445 11C9.41845 11 11.4377 9 11.4377 6.5C11.4377 4 9.41845 2 6.89445 2Z" fill="#A4A4A4"/>
</svg>
