<svg width="64" height="64" viewBox="0 0 64 64" fill="none" xmlns="http://www.w3.org/2000/svg">
<path d="M17.1506 32.2422C17.1506 31.9723 17.0438 31.7134 16.8537 31.5225C16.6635 31.3316 16.4056 31.2244 16.1368 31.2244H11.4055C11.1366 31.2244 10.8787 31.3316 10.6886 31.5225C10.4984 31.7134 10.3916 31.9723 10.3916 32.2422V51.2424C10.3916 51.5123 10.4984 51.7712 10.6886 51.9621C10.8787 52.153 11.1366 52.2602 11.4055 52.2602H16.1368C16.4056 52.2602 16.6635 52.153 16.8537 51.9621C17.0438 51.7712 17.1506 51.5123 17.1506 51.2424V32.2422Z" fill="#0263C7"/>
<path d="M26.6125 28.8493C26.6125 28.5794 26.5057 28.3205 26.3156 28.1296C26.1254 27.9387 25.8676 27.8315 25.5987 27.8315H20.8674C20.5985 27.8315 20.3406 27.9387 20.1505 28.1296C19.9603 28.3205 19.8535 28.5794 19.8535 28.8493V50.5638C19.8535 50.8337 19.9603 51.0926 20.1505 51.2835C20.3406 51.4744 20.5985 51.5817 20.8674 51.5817H25.5987C25.8676 51.5817 26.1254 51.4744 26.3156 51.2835C26.5057 51.0926 26.6125 50.8337 26.6125 50.5638V28.8493Z" fill="#0263C7"/>
<path d="M7.68772 42.4209C7.68772 42.1509 7.5809 41.892 7.39077 41.7011C7.20064 41.5103 6.94276 41.403 6.67387 41.403H1.94256C1.67367 41.403 1.4158 41.5103 1.22566 41.7011C1.03553 41.892 0.928711 42.1509 0.928711 42.4209V51.2424C0.928711 51.5123 1.03553 51.7712 1.22566 51.9621C1.4158 52.153 1.67367 52.2602 1.94256 52.2602H6.67387C6.94276 52.2602 7.20064 52.153 7.39077 51.9621C7.5809 51.7712 7.68772 51.5123 7.68772 51.2424V42.4209Z" fill="#0263C7"/>
<path d="M1.73976 35.1601L24.0445 12.7671L28.7082 17.4493C28.8077 17.5422 28.9248 17.6142 29.0525 17.6608C29.1802 17.7074 29.316 17.7278 29.4517 17.7207C29.5776 17.7315 29.7043 17.7125 29.8217 17.6654C29.939 17.6183 30.0438 17.5442 30.1276 17.4493L44.3215 3.26702V9.10277C44.3194 9.36869 44.4146 9.62611 44.5891 9.82624C44.7635 10.0264 45.005 10.1553 45.2678 10.1885C45.5427 10.1712 45.8007 10.0492 45.9891 9.84747C46.1776 9.6457 46.2822 9.37935 46.2816 9.10277V0.824145C46.2816 0.552714 46.1464 0.416999 45.9437 0.213426C45.8536 0.13057 45.746 0.0692262 45.6289 0.0339755C45.5119 -0.00127519 45.3884 -0.00952125 45.2678 0.00985318H37.0894C36.8318 0.00927792 36.5837 0.107153 36.3954 0.2836C36.207 0.460047 36.0927 0.701836 36.0755 0.95986C36.075 1.23643 36.1796 1.50278 36.368 1.70455C36.5564 1.90632 36.8144 2.0283 37.0894 2.04558L42.8345 1.90987L29.4517 15.3457L24.788 10.6635C24.5938 10.4572 24.327 10.3354 24.0445 10.3242C23.9186 10.3135 23.7919 10.3324 23.6745 10.3795C23.5571 10.4266 23.4524 10.5007 23.3686 10.5956L0.320368 33.7351C0.21968 33.8242 0.139039 33.9339 0.083803 34.0567C0.0285669 34.1796 0 34.3128 0 34.4476C0 34.5824 0.0285669 34.7156 0.083803 34.8385C0.139039 34.9613 0.21968 35.0709 0.320368 35.1601C0.419849 35.2531 0.536931 35.325 0.664655 35.3716C0.792379 35.4183 0.928137 35.4386 1.06386 35.4315C1.1893 35.4374 1.31453 35.4162 1.43113 35.3694C1.54772 35.3226 1.65296 35.2512 1.73976 35.1601Z" fill="#0263C7"/>
<path d="M62.9767 57.8924L55.2039 50.0888C55.1151 49.9877 55.0058 49.9068 54.8835 49.8513C54.7611 49.7959 54.6284 49.7672 54.4942 49.7672C54.3599 49.7672 54.2272 49.7959 54.1048 49.8513C53.9825 49.9068 53.8733 49.9877 53.7845 50.0888L52.6354 51.1745L51.216 49.7495C53.3252 47.3488 54.5011 44.2648 54.528 41.0637C54.5793 38.2613 53.7338 35.5162 52.1157 33.2321C50.4975 30.948 48.1922 29.2453 45.5385 28.3744V16.0243C45.5051 15.7244 45.3623 15.4475 45.1377 15.2471C44.913 15.0466 44.6224 14.9367 44.3218 14.9386H39.6581C39.1174 14.9386 38.7795 15.4136 38.7795 16.0243V27.9672C37.8375 28.0765 36.9222 28.3522 36.0759 28.7815V22.2672C36.0488 21.9636 35.9207 21.6781 35.7122 21.4565C35.5038 21.2349 35.2271 21.0902 34.9268 21.0457H30.3307C29.7224 21.0457 29.3169 21.7243 29.3169 22.2672V35.0923C28.641 36.9244 27.8975 38.8923 27.8975 41.0637C27.8974 44.5974 29.291 47.9874 31.7735 50.4924C34.256 52.9974 37.6254 54.4138 41.1451 54.4317C44.3282 54.4421 47.4052 53.2836 49.7966 51.1745L51.216 52.5995L50.1346 53.7531C50.0339 53.8423 49.9533 53.9519 49.898 54.0748C49.8428 54.1976 49.8142 54.3308 49.8142 54.4656C49.8142 54.6004 49.8428 54.7336 49.898 54.8565C49.9533 54.9793 50.0339 55.089 50.1346 55.1781L57.9075 62.9818C58.577 63.6354 59.4744 64.0006 60.4083 63.9996C61.3628 64.004 62.2825 63.6395 62.9767 62.9818C63.6334 62.2987 64.0003 61.3864 64.0003 60.4371C64.0003 59.4878 63.6334 58.5755 62.9767 57.8924ZM41.1451 52.396C38.9127 52.396 36.7303 51.7313 34.8741 50.4861C33.0179 49.2409 31.5711 47.4711 30.7168 45.4004C29.8625 43.3297 29.6389 41.0512 30.0745 38.8529C30.51 36.6547 31.585 34.6355 33.1636 33.0507C34.7422 31.4658 36.7535 30.3865 38.943 29.9493C41.1326 29.512 43.4021 29.7364 45.4647 30.5941C47.5272 31.4518 49.2901 32.9043 50.5304 34.7679C51.7707 36.6315 52.4327 38.8224 52.4327 41.0637C52.4416 42.5544 52.1558 44.0321 51.5917 45.411C51.0276 46.79 50.1966 48.0428 49.1466 49.0969C48.0967 50.151 46.8488 50.9854 45.4753 51.5517C44.1017 52.118 42.6299 52.405 41.1451 52.396Z" fill="#0263C7"/>
<path d="M41.1451 31.2922C39.2201 31.2922 37.3383 31.8653 35.7377 32.939C34.1372 34.0127 32.8897 35.5388 32.153 37.3243C31.4163 39.1099 31.2236 41.0746 31.5991 42.9701C31.9747 44.8655 32.9017 46.6067 34.2628 47.9732C35.624 49.3398 37.3583 50.2704 39.2463 50.6475C41.1343 51.0245 43.0913 50.831 44.8697 50.0914C46.6482 49.3518 48.1683 48.0994 49.2378 46.4925C50.3072 44.8856 50.8781 42.9964 50.8781 41.0637C50.8604 38.4777 49.8292 36.0026 48.0078 34.1739C46.1863 32.3452 43.721 31.31 41.1451 31.2922ZM41.1451 48.7995C39.6211 48.7995 38.1314 48.3458 36.8643 47.4958C35.5971 46.6458 34.6095 45.4376 34.0263 44.0241C33.4432 42.6106 33.2906 41.0552 33.5879 39.5546C33.8852 38.054 34.619 36.6756 35.6966 35.5937C36.7742 34.5119 38.1472 33.7751 39.6419 33.4766C41.1365 33.1781 42.6858 33.3313 44.0938 33.9168C45.5017 34.5023 46.7051 35.4938 47.5518 36.766C48.3984 38.0381 48.8504 39.5337 48.8504 41.0637C48.8504 43.1154 48.0386 45.083 46.5935 46.5338C45.1485 47.9845 43.1886 48.7995 41.1451 48.7995Z" fill="#0263C7"/>
</svg>
