<svg width="52" height="54" viewBox="0 0 52 54" fill="none" xmlns="http://www.w3.org/2000/svg">
<path fill-rule="evenodd" clip-rule="evenodd" d="M37.9085 14.4701C37.9093 17.0833 37.0876 19.6334 35.555 21.7742C34.0224 23.9149 31.8531 25.5426 29.3418 26.436C26.8305 27.3295 24.0988 27.4455 21.5177 26.7683C18.9366 26.0911 16.6312 24.6535 14.9146 22.6507H4.33354V30.2552C4.33354 30.4686 4.24685 30.6732 4.09255 30.8241C3.93825 30.975 3.72898 31.0597 3.51077 31.0597C3.29256 31.0597 3.08328 30.975 2.92898 30.8241C2.77469 30.6732 2.688 30.4686 2.688 30.2552V21.8448C2.68791 21.7392 2.7091 21.6346 2.75038 21.537C2.79166 21.4395 2.85221 21.3508 2.92856 21.2762C3.00491 21.2015 3.09557 21.1423 3.19535 21.1019C3.29512 21.0616 3.40206 21.0408 3.51004 21.0409H13.7368C12.1778 18.5084 11.5685 15.5243 12.0132 12.6005C12.458 9.67672 13.9292 6.99531 16.1746 5.01614L13.56 1.60802H0.822768C0.608887 1.6018 0.405898 1.51434 0.25686 1.36421C0.107823 1.21407 0.0244623 1.01306 0.0244623 0.803825C0.0244623 0.594588 0.107823 0.393582 0.25686 0.243445C0.405898 0.0933088 0.608887 0.00585478 0.822768 -0.000366211H13.9681C14.0953 -0.000338748 14.2206 0.0286723 14.3343 0.0843639C14.4479 0.140055 14.5468 0.220893 14.6229 0.320456L17.4396 3.99392C16.9999 4.31234 16.5806 4.65681 16.184 5.02539L17.8368 7.18081C17.8997 7.26906 17.9801 7.34402 18.0733 7.40122C18.1665 7.45842 18.2704 7.49668 18.3791 7.51373C18.4877 7.53078 18.5987 7.52626 18.7055 7.50045C18.8122 7.47464 18.9126 7.42806 19.0006 7.36349C19.0886 7.29892 19.1624 7.21768 19.2175 7.12463C19.2727 7.03157 19.3081 6.9286 19.3217 6.82186C19.3353 6.71513 19.3268 6.6068 19.2967 6.50336C19.2665 6.39991 19.2154 6.30346 19.1463 6.21976L17.4556 4.01455C19.6357 2.52882 22.2301 1.73416 24.8875 1.7382V14.4715L37.9085 14.4701ZM14.9204 22.6507H17.8477C18.0658 22.6507 18.2749 22.5661 18.429 22.4153C18.5832 22.2646 18.6698 22.0601 18.6698 21.8469C18.6698 21.6337 18.5832 21.4293 18.429 21.2785C18.2749 21.1278 18.0658 21.0431 17.8477 21.0431H13.8016C14.1332 21.6054 14.5072 22.1427 14.9204 22.6507ZM0.822768 49.3979H43.0007V53.9996H0.822768V49.395V49.3979ZM0.822768 42.0104H25.9881V46.6093H0.822768V42.0068V42.0104ZM0.822768 34.6236H51.1528V39.2247H0.822768V34.6208V34.6236ZM51.1528 28.491H33.2155C33.1055 28.4878 32.9959 28.5062 32.8932 28.5452C32.7906 28.5842 32.697 28.6429 32.618 28.7179C32.539 28.7929 32.4762 28.8826 32.4333 28.9818C32.3904 29.0809 32.3683 29.1875 32.3683 29.2952C32.3683 29.4029 32.3904 29.5094 32.4333 29.6086C32.4762 29.7078 32.539 29.7975 32.618 29.8725C32.697 29.9475 32.7906 30.0062 32.8932 30.0452C32.9959 30.0842 33.1055 30.1026 33.2155 30.0994H51.1528C51.2628 30.1026 51.3724 30.0842 51.4751 30.0452C51.5777 30.0062 51.6713 29.9475 51.7503 29.8725C51.8293 29.7975 51.8921 29.7078 51.935 29.6086C51.9779 29.5094 52 29.4029 52 29.2952C52 29.1875 51.9779 29.0809 51.935 28.9818C51.8921 28.8826 51.8293 28.7929 51.7503 28.7179C51.6713 28.6429 51.5777 28.5842 51.4751 28.5452C51.3724 28.5062 51.2628 28.4878 51.1528 28.491ZM51.1528 24.4555C51.2628 24.4523 51.3724 24.4707 51.4751 24.5097C51.5777 24.5486 51.6713 24.6074 51.7503 24.6824C51.8293 24.7573 51.8921 24.8471 51.935 24.9462C51.9779 25.0454 52 25.152 52 25.2596C52 25.3673 51.9779 25.4739 51.935 25.5731C51.8921 25.6722 51.8293 25.762 51.7503 25.8369C51.6713 25.9119 51.5777 25.9707 51.4751 26.0096C51.3724 26.0486 51.2628 26.067 51.1528 26.0638H39.6042C39.4941 26.067 39.3845 26.0486 39.2819 26.0096C39.1793 25.9707 39.0857 25.9119 39.0066 25.8369C38.9276 25.762 38.8648 25.6722 38.8219 25.5731C38.779 25.4739 38.757 25.3673 38.757 25.2596C38.757 25.152 38.779 25.0454 38.8219 24.9462C38.8648 24.8471 38.9276 24.7573 39.0066 24.6824C39.0857 24.6074 39.1793 24.5486 39.2819 24.5097C39.3845 24.4707 39.4941 24.4523 39.6042 24.4555H51.1528ZM51.1528 20.4185C51.3668 20.4247 51.57 20.5122 51.7192 20.6625C51.8684 20.8128 51.9518 21.014 51.9518 21.2234C51.9518 21.4328 51.8684 21.634 51.7192 21.7843C51.57 21.9345 51.3668 22.0221 51.1528 22.0283H44.2949C44.0808 22.0221 43.8777 21.9345 43.7285 21.7843C43.5793 21.634 43.4959 21.4328 43.4959 21.2234C43.4959 21.014 43.5793 20.8128 43.7285 20.6625C43.8777 20.5122 44.0808 20.4247 44.2949 20.4185H51.1528ZM51.1528 11.9035C51.371 11.9035 51.5803 11.9883 51.7346 12.1392C51.8889 12.29 51.9755 12.4947 51.9755 12.7081C51.9755 12.9214 51.8889 13.1261 51.7346 13.277C51.5803 13.4279 51.371 13.5126 51.1528 13.5126H44.2949C44.0767 13.5126 43.8674 13.4279 43.7131 13.277C43.5588 13.1261 43.4721 12.9214 43.4721 12.7081C43.4721 12.4947 43.5588 12.29 43.7131 12.1392C43.8674 11.9883 44.0767 11.9035 44.2949 11.9035H51.1528ZM51.1528 7.86727C51.371 7.86727 51.5803 7.95203 51.7346 8.10291C51.8889 8.2538 51.9755 8.45844 51.9755 8.67182C51.9755 8.88519 51.8889 9.08984 51.7346 9.24072C51.5803 9.3916 51.371 9.47636 51.1528 9.47636H44.2949C44.0767 9.47636 43.8674 9.3916 43.7131 9.24072C43.5588 9.08984 43.4721 8.88519 43.4721 8.67182C43.4721 8.45844 43.5588 8.2538 43.7131 8.10291C43.8674 7.95203 44.0767 7.86727 44.2949 7.86727H51.1528ZM51.1528 3.83173C51.2628 3.82853 51.3724 3.84696 51.4751 3.88593C51.5777 3.92491 51.6713 3.98363 51.7503 4.05862C51.8293 4.13361 51.8921 4.22335 51.935 4.32251C51.9779 4.42168 52 4.52825 52 4.63592C52 4.74359 51.9779 4.85016 51.935 4.94932C51.8921 5.04849 51.8293 5.13822 51.7503 5.21321C51.6713 5.28821 51.5777 5.34693 51.4751 5.3859C51.3724 5.42488 51.2628 5.44331 51.1528 5.44011H44.2949C44.1849 5.44331 44.0753 5.42488 43.9726 5.3859C43.87 5.34693 43.7764 5.28821 43.6974 5.21321C43.6184 5.13822 43.5556 5.04849 43.5127 4.94932C43.4698 4.85016 43.4477 4.74359 43.4477 4.63592C43.4477 4.52825 43.4698 4.42168 43.5127 4.32251C43.5556 4.22335 43.6184 4.13361 43.6974 4.05862C43.7764 3.98363 43.87 3.92491 43.9726 3.88593C44.0753 3.84696 44.1849 3.82853 44.2949 3.83173H51.1528ZM7.68135 11.9049H0.822768C0.604556 11.9049 0.395283 11.9897 0.240984 12.1406C0.0866845 12.2915 0 12.4961 0 12.7095C0 12.9229 0.0866845 13.1275 0.240984 13.2784C0.395283 13.4293 0.604556 13.514 0.822768 13.514H7.68135C7.89956 13.514 8.10884 13.4293 8.26314 13.2784C8.41744 13.1275 8.50412 12.9229 8.50412 12.7095C8.50412 12.4961 8.41744 12.2915 8.26314 12.1406C8.10884 11.9897 7.89956 11.9049 7.68135 11.9049ZM7.68135 7.86869H0.822768C0.604556 7.86869 0.395283 7.95345 0.240984 8.10434C0.0866845 8.25522 0 8.45986 0 8.67324C0 8.88662 0.0866845 9.09126 0.240984 9.24214C0.395283 9.39302 0.604556 9.47779 0.822768 9.47779H7.68135C7.89956 9.47779 8.10884 9.39302 8.26314 9.24214C8.41744 9.09126 8.50412 8.88662 8.50412 8.67324C8.50412 8.45986 8.41744 8.25522 8.26314 8.10434C8.10884 7.95345 7.89956 7.86869 7.68135 7.86869ZM7.68135 3.83315H0.822768C0.608887 3.83937 0.405898 3.92682 0.25686 4.07696C0.107823 4.2271 0.0244623 4.4281 0.0244623 4.63734C0.0244623 4.84658 0.107823 5.04758 0.25686 5.19772C0.405898 5.34786 0.608887 5.43531 0.822768 5.44153H7.68135C7.89523 5.43531 8.09822 5.34786 8.24726 5.19772C8.3963 5.04758 8.47966 4.84658 8.47966 4.63734C8.47966 4.4281 8.3963 4.2271 8.24726 4.07696C8.09822 3.92682 7.89523 3.83937 7.68135 3.83315ZM34.6217 4.54024C32.735 2.79476 30.2353 1.82365 27.638 1.82712V11.7819H37.8182C37.8207 9.60336 37.089 7.48475 35.7362 5.75382L38.4126 2.2646H51.1528C51.371 2.2646 51.5803 2.17984 51.7346 2.02896C51.8889 1.87807 51.9755 1.67343 51.9755 1.46005C51.9755 1.24668 51.8889 1.04204 51.7346 0.891153C51.5803 0.740271 51.371 0.655507 51.1528 0.655507H38.0081C37.8809 0.6552 37.7554 0.684065 37.6417 0.739783C37.528 0.795501 37.4293 0.876519 37.3534 0.97633L34.6217 4.53313V4.54024ZM35.7086 5.79223C35.357 5.37197 34.98 4.97265 34.5796 4.59644L32.8263 6.87848C32.707 7.04886 32.6596 7.25769 32.6938 7.46145C32.7281 7.66521 32.8414 7.84819 33.0102 7.97226C33.179 8.09634 33.3903 8.15193 33.5999 8.12747C33.8096 8.10301 34.0016 8.00037 34.1358 7.84095L35.7086 5.79223Z" fill="#0263C7"/>
</svg>
