<svg width="42" height="56" viewBox="0 0 42 56" fill="none" xmlns="http://www.w3.org/2000/svg">
<path d="M20.023 39.7896L18.666 40.2146L27.135 44.4496C27.7079 43.036 28.0016 41.5249 28 39.9996C28.0004 39.1208 27.9045 38.2445 27.714 37.3866L20.023 39.7896Z" fill="#0263C7"/>
<path d="M27.1209 35.4766C26.5194 33.9975 25.6288 32.6533 24.5012 31.5228C23.3736 30.3923 22.0318 29.4981 20.5543 28.8928C19.0767 28.2874 17.4933 27.983 15.8966 27.9974C14.3 28.0118 12.7222 28.3447 11.2559 28.9766L16.4939 38.7996L27.1209 35.4766Z" fill="#0263C7"/>
<path d="M15.525 40.8747C15.4723 40.846 15.4225 40.8125 15.376 40.7747C15.3517 40.759 15.3283 40.742 15.306 40.7237L15.293 40.7097C15.2519 40.6646 15.2148 40.6161 15.182 40.5647C15.164 40.5377 15.141 40.5147 15.125 40.4857L15.118 40.4757L9.49098 29.9257C7.97077 30.9014 6.69044 32.2077 5.74549 33.7472C4.80054 35.2867 4.21536 37.0197 4.03358 38.817C3.85179 40.6142 4.0781 42.4293 4.69563 44.1268C5.31315 45.8244 6.30596 47.3606 7.60001 48.621C8.89406 49.8814 10.456 50.8333 12.1692 51.4059C13.8825 51.9784 15.7029 52.1568 17.4947 51.9277C19.2865 51.6985 21.0035 51.0679 22.5175 50.0826C24.0316 49.0974 25.3037 47.7831 26.239 46.2377L15.553 40.8997C15.542 40.8887 15.535 40.8797 15.525 40.8747Z" fill="#0263C7"/>
<path d="M24 18.9996C23.7348 18.9996 23.4804 18.8943 23.2929 18.7067C23.1054 18.5192 23 18.2649 23 17.9996V-0.000366211H0V55.9996H42V18.9996H24ZM2 1.99963H18V3.99963H2V1.99963ZM2 5.99963H18V7.99963H2V5.99963ZM2 9.99963H18V11.9996H2V9.99963ZM2 13.9996H11V15.9996H2V13.9996ZM2 17.9996H11V19.9996H2V17.9996ZM28.512 46.2566C26.9746 49.3142 24.3676 51.7006 21.1863 52.9624C18.0051 54.2242 14.4711 54.2735 11.2559 53.101C8.04064 51.9285 5.36808 49.6158 3.74592 46.6023C2.12375 43.5888 1.66499 40.0844 2.4568 36.7549C3.2486 33.4254 5.2358 30.5027 8.04089 28.5421C10.846 26.5814 14.2735 25.7194 17.6724 26.1198C21.0713 26.5202 24.2046 28.1551 26.4773 30.714C28.75 33.2728 30.0036 36.5773 30 39.9996C29.9987 42.1737 29.4884 44.3172 28.51 46.2586L28.512 46.2566ZM40 50.9996H32V48.9996H40V50.9996ZM40 32.9996H37V30.9996H40V32.9996ZM40 28.9996H31V26.9996H40V28.9996ZM40 24.9996H31V22.9996H40V24.9996Z" fill="#0263C7"/>
<path d="M25 1.4137V16.9997H40.586L25 1.4137Z" fill="#0263C7"/>
</svg>
